<?xml version="1.0" encoding="UTF-8"?><svg id="Layer_1" xmlns="http://www.w3.org/2000/svg" viewBox="0 0 252 252"><defs><style>.cls-1{fill:#fff;stroke-width:0px;}</style></defs><path class="cls-1" d="M178.15,37.81c5.16,6.8,3.09,19.94-1.35,26.74-11.05,16.92-34.13,19.46-48.76,5.46-2.28-2.18-3.81-5.62-7.72-5.66,0,0-.2-.02-.2-.02,2.16.15,1.46-1.43,1.53-2.55l.47.09c.31,1.16,1.06,2.54,2.16,1.41,1.19-1.22-.06-2.53-1.23-3.43-.04-2.38-.07-4.76-.11-7.14,3.12-1.6,4.86-4.34,6.4-7.37,2.93-5.76,6.95-10.36,13.18-12.96,7.61-3.18,15.78-3.18,23.66-4.77,3.14.6,4.26,3.9,6.92,5.14.73,2.64.81,5.94,5.07,5.05ZM179.03,44.31c-.13-.26-.26-.51-.38-.75-.14.23-.39.47-.39.71,0,.25.21.5.33.75.15-.23.29-.46.44-.7Z"/><path class="cls-1" d="M173.09,32.76c-2.66-1.24-3.78-4.55-6.92-5.14-.32-3.2-3.17-2.98-5.2-3.68-1.36-.48-2.99-.15-4.39-.57-9.8-2.91-17.89-.25-23.39,7.64-.81,1.17-2.12,2.09-3.37,2.84-6.72,4.02-9.29,10.94-6.88,18.87.04,2.38.07,4.76.11,7.14-.31.67-.61,1.34-.92,2.02,0,0-.47-.09-.47-.09-1.45-.84-1.26-4.43-3.2-3.26-1.8,1.09.03,3.43,1.09,5.02.18.27.38.52.58.78,0,0,.2.02.2.02.9,2.74-1.33,3.02-2.95,3.6-15.96,5.69-31.9,11.41-47.93,16.89-1.87.64-2.33,1.42-2.35,3.05-.06,4.34-.28,8.65-2.53,12.57-1.08,1.87.09,2.97,1.32,4.26,8.97,9.38,17.79,18.9,26.83,28.22,2.81,2.9,4.28,4.91-.42,7.45-1.75.95-5.31,2.99-1.16,5.79,0,.26-.13.4-.39.41-13.77-8.16-22.61-21.39-33.38-32.62-2.33-2.43-3.65-1.18-5.47-.25-17.45,8.85-33.91-4.38-36.19-17.94-1.98-11.79,2.98-23.14,13.1-28.14,10.6-5.24,23.67-2.7,31.45,6.15,1.52,1.73,2.9,3.59,4.77,5.93.66-4,3.47-4.81,6.29-5.84,13.58-4.99,26.94-10.72,40.99-14.21,5.66-1.41,6.48-3.05,6.07-8.83-.85-12.12,5.39-21.41,15.75-27.44,10.96-6.37,22.17-6.74,32.86.84,3.18,2.26,6.82,4.33,8.03,8.55-.64,0-1.27-.02-1.91-.02ZM41.36,113.89c1.66.48,3.39-1.46,5.47-1.68,6.61-.7,11.56-3.25,14.65-9.66,2.89-6,3.48-13.35,1.49-17.95-3.43-7.96-7.83-17.87-20.07-16.09-5.73.83-11.62-1.09-17.02,3.84-8.15,7.44-10.72,17.08-6.77,27.47,1.3,3.43,4.96,3.19,5.74,5.54,2.67,8.09,9.33,7.96,16.52,8.54Z"/><path class="cls-1" d="M90.75,146.59c.26-.01.39-.15.39-.41,1.53-2.04,3.56-3.36,5.98-4.09-.85,3.1-.79,5.73,1.23,8.79,7.29,11.03,16.43,20.36,25.87,29.43,2.79,2.68,6.28,3.65,10.52,2.99,4.49-.71,9.01-.95,13.16-3.03-.8,5.93-5.18,9.98-7.86,14.92-.64,1.27-1.69,2.07-2.98,2.59-.99-.06-1.74.26-2.01,1.32-.33.23-.66.46-1,.68-5.74,2.48-11.89,3.42-17.9,4.9-1.03,0-2.06,0-3.1,0-5.28-1.64-10.56-3.27-15.84-4.91-.35-.24-.7-.49-1.05-.73-.27-1-.99-1.3-1.94-1.27-.35-.28-.7-.56-1.05-.83-.46-1.4-1.42-2.14-2.9-2.19-1.11-.3-1.82-1-2.11-2.13-.35-2.36-1.8-3.56-4.08-3.89.2-.71,1.82-1.27,1-1.79-3.95-2.46-2.69-5.36-1.86-8.98.65-2.84,1.36-6.67-1.94-9.12.68-7.62,3.49-14.43,7.87-20.65.53-.53,1.06-1.06,1.59-1.58Z"/><path class="cls-1" d="M147.9,180.26c-4.15,2.08-8.67,2.32-13.16,3.03-4.24.67-7.73-.3-10.52-2.99-9.44-9.07-18.58-18.4-25.87-29.43-2.02-3.05-2.08-5.68-1.23-8.79,14.95-11.06,36.77-7.28,46.87,8.13.54.83,1.16,1.61,1.73,2.4.66,1.32,1.33,2.66,2,4,2.24,6.26,3.41,12.62,1.93,19.25-.28.17-.56.34-.85.52.23.12.45.24.68.36.31,1.23.23,2.33-1.04,3.02-.23.12-.4.29-.53.5Z"/><path class="cls-1" d="M147.71,156.61c-.67-1.34-1.34-2.68-2-4-.36-3.92,1.85-6.1,5.1-7.69,10.45-5.1,20.84-10.32,31.34-15.32,1.96-.93,2.25-2.1,2.04-3.91-.78-6.79,1.15-12.83,5.26-18.2,1.1-1.44,1.23-2.17-.45-3.54-7.53-6.12-13.15-14.07-19.72-21.12-1.7-1.83-1.78-3.04.38-4.83,7.21-5.99,7.21-6.16,13.22,1.64,4.82,6.25,10.83,11.65,13.54,19.44.84,2.4,2.53.3,3.64-.18,10.51-4.56,19.98-2.55,28.15,4.98,10.68,9.84,11.31,26.29,1.82,36.83-9.36,10.39-26.84,11.39-37.4,1.76-2.77-2.52-3.74-2.9-7.11-.32-6.97,5.33-15.34,8.55-23.27,12.36-1.95.93-4.1,1.6-5.79,2.86-3.29,2.46-6.07,2.14-8.75-.78ZM185.92,126.14c1.25,2.45-1.73,5.52.45,7.36,3.08,2.61,5.51,5.9,9.17,7.96,12.21,6.87,20.58,9.02,31.55-2.14,3.95-4.02,7.21-8.58,6.14-14.83-.17-1.01.16-1.94.97-2.7,1.44-1.35.73-2.94-.03-4.12-3.42-5.28-6.3-10.93-11.6-14.86-6.5-4.81-17.52-5.35-24.07-.7-8.24,5.86-12.17,13.97-12.57,24.02Z"/><path class="cls-1" d="M159.26,193.72c.27.21.53.42.8.63.29,1.17,1.11,1.48,2.19,1.38.27.21.54.42.81.63.28,1.16,1.1,1.49,2.18,1.38.27.21.55.41.82.62,3.82,4.15,7.92,6.67,13.94,4.13,4.39-1.85,8.53,0,12.03,2.79,7.46,5.97,7.31,13.51,4.12,21.58-.48,1.51-1.65,2.33-3.01,2.94-6.82,2.7-13.5,2.82-19.98-1.02-1.04-.29-1.61-1.07-2.03-1.99-1.95-4.05-3.58-8.15-2.98-12.82.21-1.65-.88-2.92-2.12-3.74-7.17-4.72-14.17-9.72-21.96-13.43-.25-.19-.29-.42-.13-.68.49-.87,1.02-1.71,1.47-2.6,2.66-5.29,3.71-5.52,8.67-2.44,1.64,1.02,2.96,2.8,5.21,2.65Z"/><path class="cls-1" d="M145.42,85.89c-1.83,5.42-3.5,10.46-5.24,15.48-3.27,9.41-6.55,18.82-9.88,28.21-2.15,6.06-5.85.33-8.81.84-2.4.42-1.68-2.55-1.18-4.26,4.1-14.03,9.18-27.72,14.07-41.48.7-1.97,1.8-3.56,3.96-2.33,2.31,1.32,6.41-.46,7.07,3.54Z"/><path class="cls-1" d="M28.12,190.8c.31-.35.62-.7.94-1.04,1.48.14,2.35-1,3.49-1.61,5.63-3.03,11.19-3.45,16.56.64-1.39,3.23,1.1,3.41,3.12,3.96,1.06,1.16,2.07,2.41,3.92,2.11,0,.62-.02,1.24-.03,1.86-.03.36-.06.73-.09,1.09-2.02-.17-3.19.71-2.87,2.78.52,3.36-.88,6.23-1.98,9.21,0,0-.03.03-.03.03-1.86-.23-3.08,1.2-4.39,2.01-5.4,3.34-10.17,1.77-15.19-.97-1.96-1.07-1.92-4.01-4.54-4.07-2.07-5.5-.92-10.78,1.1-16Z"/><path class="cls-1" d="M56.11,196.72c0-.62.02-1.24.03-1.86-.02-1.72-.04-3.43-.06-5.15.24-.81.86-1.08,1.62-1.13,4.69-.5,8.59-3.23,12.98-4.59,7.46-2.31,13.49-5.61,10.6-15.16,3.3,2.45,2.59,6.29,1.94,9.12-.83,3.62-2.08,6.51,1.86,8.98.82.51-.81,1.08-1,1.79-5.19,1.7-10.41,3.3-15.56,5.12-4.05,1.43-7.88,3.62-12.42,2.89Z"/><path class="cls-1" d="M81.29,168.83c2.89,9.55-3.14,12.84-10.6,15.16-4.39,1.36-8.29,4.09-12.98,4.59,4.9-3.84,10.99-5.23,16.53-7.7,4.16-1.85,6.41-3.65,5.71-8.73-.98-7.16,1.59-13.75,5.18-19.88.98-1.67,1.76-3.64,4.03-4.09-4.37,6.22-7.19,13.03-7.87,20.65Z"/><path class="cls-1" d="M56.11,196.72c4.54.73,8.37-1.46,12.42-2.89,5.15-1.82,10.37-3.42,15.56-5.12,2.29.32,3.74,1.53,4.08,3.89-1.99-1.69-4.02-2.51-6.75-1.51-7.15,2.6-14.35,5.05-21.59,7.38-2.05.66-2.23,1.97-2.48,3.71-.77,5.35-3.3,9.58-8.29,12.07.08-1.76,2.38-2.49,2.08-4.43,0,0,.03-.03.03-.03,5.47-2.43,4.18-7.61,4.86-11.99.03-.36.06-.73.09-1.09Z"/><path class="cls-1" d="M196.14,226.84c3.2-8.07,3.35-15.61-4.12-21.58-3.5-2.8-7.64-4.65-12.03-2.79-6.02,2.54-10.12.02-13.94-4.13,1.81,0,3,1.31,4.36,2.19,2.48,1.6,4.73,2.16,7.83.92,6.53-2.61,14.54.64,18.55,6.89,4.54,7.06,4.32,13.28-.65,18.51Z"/><path class="cls-1" d="M28.12,190.8c-2.03,5.22-3.17,10.5-1.1,16,1.34,5.16,5.35,8.58,10.31,9,3.65.31,7.17-.44,10.72-1.05-4.71,4.98-15.49,3.21-20.37-2.87-5.33-6.64-5.24-15.78.44-21.08Z"/><path class="cls-1" d="M144.05,196.79c7.79,3.71,14.8,8.7,21.96,13.43,1.25.82,2.34,2.09,2.12,3.74-.6,4.67,1.03,8.77,2.98,12.82-3.72-2.35-4.46-6.23-4.24-10.01.21-3.6-1.27-5.64-4.01-7.32-4.96-3.05-9.96-6.03-14.82-9.23-1.44-.94-3.48-1.36-3.99-3.44Z"/><path class="cls-1" d="M159.26,193.72c-2.25.14-3.57-1.63-5.21-2.65-4.96-3.08-6-2.85-8.67,2.44-.45.89-.98,1.74-1.47,2.6-.91-1.92-2.43-1.23-3.87-.92,2.68-4.95,7.06-8.99,7.86-14.92.13-.21.31-.37.53-.49-2.05,5.73.97,8.27,5.92,10.06,1.86.67,3.76,1.97,4.9,3.9Z"/><path class="cls-1" d="M48.04,214.75c-3.55.61-7.06,1.36-10.72,1.05-4.96-.42-8.97-3.83-10.31-9,2.62.06,2.58,3,4.54,4.07,5.02,2.74,9.79,4.31,15.19.97,1.31-.81,2.53-2.24,4.39-2.01.3,1.94-2,2.67-2.08,4.43-.34.16-.67.32-1.01.49Z"/><path class="cls-1" d="M49.11,188.78c-5.37-4.1-10.93-3.67-16.56-.64-1.13.61-2.01,1.75-3.49,1.61,6.2-6.72,14.96-7.09,22.02-.94l-.32.33c-.55-.12-1.1-.24-1.65-.37Z"/><path class="cls-1" d="M173.15,228.77c6.48,3.83,13.17,3.72,19.98,1.02-6.62,5.19-14.63,4.79-19.98-1.02Z"/><path class="cls-1" d="M116.16,204.67c6.01-1.48,12.17-2.42,17.9-4.9-5.37,3.84-11.28,5.67-17.9,4.9Z"/><path class="cls-1" d="M97.22,199.75c5.28,1.64,10.56,3.27,15.84,4.91-5.92.43-11.22-1.16-15.84-4.91Z"/><path class="cls-1" d="M56.08,189.71c.02,1.72.04,3.43.06,5.15-1.84.3-2.86-.95-3.92-2.11-.49-1.2-.98-2.4-1.47-3.6l.32-.33c1.57.84,2.99,2.54,5.01.89Z"/><path class="cls-1" d="M173.09,32.76c.64,0,1.27.02,1.91.02,2.05,1.05,2.33,3.21,3.16,5.03-4.26.89-4.33-2.41-5.07-5.05Z"/><path class="cls-1" d="M90.28,194.73c1.48.05,2.44.79,2.9,2.19-1.6.11-2.42-.82-2.9-2.19Z"/><path class="cls-1" d="M135.06,199.09c.27-1.05,1.01-1.37,2.01-1.32-.27,1.04-.96,1.46-2.01,1.32Z"/><path class="cls-1" d="M94.23,197.75c.95-.04,1.67.27,1.94,1.27-1.03.16-1.72-.19-1.94-1.27Z"/><path class="cls-1" d="M162.25,195.72c-1.09.1-1.91-.21-2.19-1.38,1.02,0,1.84.32,2.19,1.38Z"/><path class="cls-1" d="M165.24,197.72c-1.09.11-1.9-.21-2.18-1.38,1.04-.04,1.82.34,2.18,1.38Z"/><path class="cls-1" d="M149.48,176.74c-.23-.12-.45-.24-.68-.36.28-.17.56-.34.85-.52.17.33.12.62-.16.87Z"/><path class="cls-1" d="M122.93,52.72c-2.4-7.93.16-14.85,6.88-18.87,1.25-.75,2.56-1.67,3.37-2.84,5.51-7.89,13.6-10.56,23.39-7.64,1.4.42,3.03.09,4.39.57,2.03.71,4.89.49,5.2,3.68-7.88,1.59-16.05,1.59-23.66,4.77-6.23,2.6-10.25,7.2-13.18,12.96-1.54,3.03-3.28,5.77-6.4,7.37Z"/><path class="cls-1" d="M122.12,61.87c.31-.67.62-1.34.92-2.02,1.17.9,2.43,2.21,1.23,3.43-1.1,1.13-1.85-.25-2.16-1.41Z"/><path class="cls-1" d="M179.03,44.31c-.15.24-.3.47-.44.7-.12-.25-.34-.5-.33-.75,0-.24.25-.47.39-.71.13.25.25.5.38.75Z"/><path class="cls-1" d="M41.36,113.89c-7.19-.58-13.85-.44-16.52-8.54-.78-2.36-4.44-2.12-5.74-5.54-3.95-10.38-1.37-20.03,6.77-27.47,5.4-4.93,11.3-3.01,17.02-3.84,12.24-1.78,16.64,8.14,20.07,16.09,1.99,4.61,1.4,11.96-1.49,17.95-3.09,6.42-8.04,8.96-14.65,9.66-2.08.22-3.81,2.16-5.47,1.68Z"/><path class="cls-1" d="M185.92,126.14c.4-10.05,4.34-18.16,12.57-24.02,6.55-4.66,17.57-4.11,24.07.7,5.3,3.92,8.18,9.57,11.6,14.86.76,1.18,1.48,2.77.03,4.12-.81.76-1.14,1.69-.97,2.7,1.07,6.24-2.19,10.8-6.14,14.83-10.97,11.17-19.35,9.01-31.55,2.14-3.67-2.06-6.09-5.35-9.17-7.96-2.18-1.84.81-4.91-.45-7.36Z"/><path class="cls-1" d="M56.02,197.81c-.68,4.38.62,9.55-4.86,11.99,1.1-2.97,2.5-5.85,1.98-9.21-.32-2.07.85-2.95,2.87-2.78Z"/><path class="cls-1" d="M50.75,189.15c.49,1.2.98,2.4,1.47,3.6-2.02-.55-4.5-.73-3.12-3.96.55.12,1.1.24,1.65.37Z"/></svg>