<?xml version="1.0" encoding="UTF-8"?><svg id="Layer_1" xmlns="http://www.w3.org/2000/svg" viewBox="0 0 756 252"><defs><style>.cls-1{fill:#0570cb;}.cls-1,.cls-2,.cls-3,.cls-4,.cls-5{stroke-width:0px;}.cls-2{fill:#4e5860;}.cls-3{fill:#135f9e;}.cls-4{fill:#2e3e4b;}.cls-5{fill:#364653;}</style></defs><path class="cls-5" d="M483.19,146.34c-5.66,0-11.32.09-16.98-.03-2.96-.06-3.72,1.16-3.34,3.97.86,6.35,6.47,11.77,13.19,12.27,5.4.4,10.58-.4,15.51-2.85,4.58-2.27,9.36-.23,11.3,4.51.74,1.82-.26,2.77-1.44,3.8-10.17,8.91-32.6,9.6-43.68,1.34-11.61-8.67-15.81-26.28-9.56-40.13,5.78-12.82,21.5-19.74,36.74-16.17,12.16,2.84,19.95,13.93,19.77,27.68-.05,3.99-1.38,5.81-5.55,5.64-5.32-.21-10.65-.05-15.98-.05ZM476.33,137.08v-.1c3.49,0,6.98,0,10.47,0,2.34,0,3.12-.9,2.71-3.42-1.09-6.77-4.97-10.53-11.59-10.72-7.98-.23-13.43,3.71-14.85,10.46-.63,3,.43,3.92,3.28,3.81,3.32-.13,6.65-.03,9.97-.03Z"/><path class="cls-3" d="M185.02,37.81c5.16,6.8,3.09,19.94-1.35,26.74-11.05,16.92-34.13,19.46-48.76,5.46-2.28-2.18-3.81-5.62-7.72-5.66,0,0-.2-.02-.2-.02,2.16.15,1.46-1.43,1.53-2.55l.47.09c.31,1.16,1.06,2.54,2.16,1.41,1.19-1.22-.06-2.53-1.23-3.43-.04-2.38-.07-4.76-.11-7.14,3.12-1.6,4.86-4.34,6.4-7.37,2.93-5.76,6.95-10.36,13.18-12.96,7.61-3.18,15.78-3.18,23.66-4.77,3.14.6,4.26,3.9,6.92,5.14.73,2.64.81,5.94,5.07,5.05ZM185.89,44.31c-.13-.26-.26-.51-.38-.75-.14.23-.39.47-.39.71,0,.25.21.5.33.75.15-.23.29-.46.44-.7Z"/><path class="cls-2" d="M179.96,32.76c-2.66-1.24-3.78-4.55-6.92-5.14-.32-3.2-3.17-2.98-5.2-3.68-1.36-.48-2.99-.15-4.39-.57-9.8-2.91-17.89-.25-23.39,7.64-.81,1.17-2.12,2.09-3.37,2.84-6.72,4.02-9.29,10.94-6.88,18.87.04,2.38.07,4.76.11,7.14-.31.67-.61,1.34-.92,2.02,0,0-.47-.09-.47-.09-1.45-.84-1.26-4.43-3.2-3.26-1.8,1.09.03,3.43,1.09,5.02.18.27.38.52.58.78,0,0,.2.02.2.02.9,2.74-1.33,3.02-2.95,3.6-15.96,5.69-31.9,11.41-47.93,16.89-1.87.64-2.33,1.42-2.35,3.05-.06,4.34-.28,8.65-2.53,12.57-1.08,1.87.09,2.97,1.32,4.26,8.97,9.38,17.79,18.9,26.83,28.22,2.81,2.9,4.28,4.91-.42,7.45-1.75.95-5.31,2.99-1.16,5.79,0,.26-.13.4-.39.41-13.77-8.16-22.61-21.39-33.38-32.62-2.33-2.43-3.65-1.18-5.47-.25-17.45,8.85-33.91-4.38-36.19-17.94-1.98-11.79,2.98-23.14,13.1-28.14,10.6-5.24,23.67-2.7,31.45,6.15,1.52,1.73,2.9,3.59,4.77,5.93.66-4,3.47-4.81,6.29-5.84,13.58-4.99,26.94-10.72,40.99-14.21,5.66-1.41,6.48-3.05,6.07-8.83-.85-12.12,5.39-21.41,15.75-27.44,10.96-6.37,22.17-6.74,32.86.84,3.18,2.26,6.82,4.33,8.03,8.55-.64,0-1.27-.02-1.91-.02ZM48.23,113.89c1.66.48,3.39-1.46,5.47-1.68,6.61-.7,11.56-3.25,14.65-9.66,2.89-6,3.48-13.35,1.49-17.95-3.43-7.96-7.83-17.87-20.07-16.09-5.73.83-11.62-1.09-17.02,3.84-8.15,7.44-10.72,17.08-6.77,27.47,1.3,3.43,4.96,3.19,5.74,5.54,2.67,8.09,9.33,7.96,16.52,8.54Z"/><path class="cls-5" d="M558.54,173.62c-5.77,1.53-9.59-1.52-12.34-7.17-1.81-3.72-4.63-6.93-6.52-10.61-1.83-3.55-3.1-2.51-4.75-.05-2.59,3.87-5.66,7.48-7.77,11.59-2.66,5.17-6.4,7.32-12.05,6.39-2.55-.42-6.09,1.42-7.49-1.08-1.61-2.88,1.9-4.9,3.41-7.06,4.73-6.84,9.64-13.56,14.7-20.16,1.52-1.98,1.5-3.11-.04-5.1-5.68-7.38-11.1-14.96-16.59-22.48-.76-1.04-2.07-2.05-1.41-3.5.69-1.5,2.31-.94,3.58-1.03.17-.01.34.03.5,0,10.59-1.92,16.42,3.81,21.38,12.25,4.77,8.1,5.25,7.81,10.55-.01.93-1.38,2.18-2.62,2.8-4.12,3.53-8.67,10.81-8.64,18.32-8.01,3.05.26,3.15,1.84,1.5,4.04-5.38,7.19-10.55,14.54-16.16,21.54-2.09,2.61-2.13,4.49-.29,7,5.5,7.52,10.91,15.1,16.29,22.7.8,1.13,2.69,2.09,1.75,3.75-.82,1.46-2.7.95-4.14,1.09-1.49.14-2.99.03-5.24.03Z"/><path class="cls-5" d="M97.61,146.59c.26-.01.39-.15.39-.41,1.53-2.04,3.56-3.36,5.98-4.09-.85,3.1-.79,5.73,1.23,8.79,7.29,11.03,16.43,20.36,25.87,29.43,2.79,2.68,6.28,3.65,10.52,2.99,4.49-.71,9.01-.95,13.16-3.03-.8,5.93-5.18,9.98-7.86,14.92-.64,1.27-1.69,2.07-2.98,2.59-.99-.06-1.74.26-2.01,1.32-.33.23-.66.46-1,.68-5.74,2.48-11.89,3.42-17.9,4.9-1.03,0-2.06,0-3.1,0-5.28-1.64-10.56-3.27-15.84-4.91-.35-.24-.7-.49-1.05-.73-.27-1-.99-1.3-1.94-1.27-.35-.28-.7-.56-1.05-.83-.46-1.4-1.42-2.14-2.9-2.19-1.11-.3-1.82-1-2.11-2.13-.35-2.36-1.8-3.56-4.08-3.89.2-.71,1.82-1.27,1-1.79-3.95-2.46-2.69-5.36-1.86-8.98.65-2.84,1.36-6.67-1.94-9.12.68-7.62,3.49-14.43,7.87-20.65.53-.53,1.06-1.06,1.59-1.58Z"/><path class="cls-5" d="M383,121.9c.31-.38.62-.75.93-1.13.63-.01,1.26-.03,1.9-.04.37-.32.75-.64,1.12-.96l.02-.03c1.47.06,2.94.11,2.97-1.98h.03c1.96,0,4.13.47,4.96-2.15.65-.3,1.31-.6,1.96-.9,2.13,2.02,4.78,1.04,7.15,1.01,3.76-.05,7.19.39,10.18,3.1-1.99,1.56-4.06.8-5.99.95-3.05.24-5.62,1.24-7.18,4.07,0,0-.06,0-.06,0-1.55-.1-2.99-.05-2.97,2.08-.97.97-1.93,1.93-2.9,2.9-.63.16-1.45.12-1.85.52-2.97,3-4.74,19.37-2.49,22.98.19.31.9.29,1.37.42.3.66.6,1.32.9,1.98-1.61,1.59-.36,1.87.97,2.11-.73,3.33,3.33,2.67,4,4.83,1.87,5.41,6.49,3.99,10.41,4.1,3.59.11,6.33-1.36,7.55-4.98.4-.6.81-1.2,1.21-1.8.88-.41,1.76-.83,2.64-1.24,2.14.03,2.19-1.41,2.09-2.96l.02-.04c3.62-3.78,2.84-8.64,2.91-13.15.03-2.26,1.88-5.49-1.92-6.84-.02-.62-.04-1.23-.06-1.85,2.51-3.8-.16-5.45-2.93-7.07h-.05c-.53-2.02-.64-4.03.06-6.04.68,0,1.37,0,2.05,0,6.67-.65,3.71-5.48,3.49-8.69-.63-9.07-1.2-18.1.4-27.12,1.83-.05,3.68.03,5.49-.17,3.37-.36,4.67.78,4.64,4.42-.15,26.49-.11,52.99-.1,79.48,0,2.7-.09,5.32-3.78,4.95-3.11-.31-7.55,1.71-8.19-3.8-.38-3.32-1.92-4.28-4.95-3.05-.7.14-1.67.08-1.56,1.11.04.44.74.8,1.13,1.2-.22.23-.44.45-.66.68-2.01.95-4.01,1.91-6.02,2.86-2.61-2.59-9.5-1.49-12.91,2.06-.81.02-1.56-.08-2.06-.83-.78-4.82-4.55-2.56-7.17-3.01-1.06-.04-2.16.03-2.82-1.07,1.15-3.14-1.68-2.33-3-3.02-.34-.63-.68-1.27-1.02-1.9-.25-.43.62-1.9-1-1.07-1.4-1.73-1.95-3.75-2.01-5.93.14-.16.27-.31.41-.47-.16.14-.31.27-.47.41-1.2-1.09-1.75-2.48-1.85-4.07.54-.3,1.54-.59,1.55-.91.22-5.73,1.48-11.52-.69-17.16-.91-3.63,2.63-6.32,2.09-9.88.16-.33.32-.65.48-.98,1.1-.18,1.55-.87,1.52-1.94Z"/><path class="cls-1" d="M154.77,180.26c-4.15,2.08-8.67,2.32-13.16,3.03-4.24.67-7.73-.3-10.52-2.99-9.44-9.07-18.58-18.4-25.87-29.43-2.02-3.05-2.08-5.68-1.23-8.79,14.95-11.06,36.77-7.28,46.87,8.13.54.83,1.16,1.61,1.73,2.4.66,1.32,1.33,2.66,2,4,2.24,6.26,3.41,12.62,1.93,19.25-.28.17-.56.34-.85.52.23.12.45.24.68.36.31,1.23.23,2.33-1.04,3.02-.23.12-.4.29-.53.5Z"/><path class="cls-5" d="M296.99,128.93c0,13.32-.1,26.63.07,39.95.05,3.79-1.26,5.08-4.99,4.71-3.13-.31-6.32-.2-9.48-.1-3.03.1-4.01-1.2-4-4.2.09-27.13.09-54.26.05-81.4,0-2.97,1.12-4.06,4.1-4.22,13.79-.76,13.91-.84,14.16,12.81.2,10.81.04,21.64.04,32.45h.06ZM281.96,169.8c2.88,3.9,6.14,1.53,9.28.96-3.01-1.49-6.16-.75-9.24-1.01v-77.65c-2.14.72-1.98,1.64-1.98,2.4-.02,23.96-.02,47.93-.03,71.89,0,1.51-.16,3.12,1.96,3.4Z"/><path class="cls-2" d="M154.58,156.61c-.67-1.34-1.34-2.68-2-4-.36-3.92,1.85-6.1,5.1-7.69,10.45-5.1,20.84-10.32,31.34-15.32,1.96-.93,2.25-2.1,2.04-3.91-.78-6.79,1.15-12.83,5.26-18.2,1.1-1.44,1.23-2.17-.45-3.54-7.53-6.12-13.15-14.07-19.72-21.12-1.7-1.83-1.78-3.04.38-4.83,7.21-5.99,7.21-6.16,13.22,1.64,4.82,6.25,10.83,11.65,13.54,19.44.84,2.4,2.53.3,3.64-.18,10.51-4.56,19.98-2.55,28.15,4.98,10.68,9.84,11.31,26.29,1.82,36.83-9.36,10.39-26.84,11.39-37.4,1.76-2.77-2.52-3.74-2.9-7.11-.32-6.97,5.33-15.34,8.55-23.27,12.36-1.95.93-4.1,1.6-5.79,2.86-3.29,2.46-6.07,2.14-8.75-.78ZM192.79,126.14c1.25,2.45-1.73,5.52.45,7.36,3.08,2.61,5.51,5.9,9.17,7.96,12.21,6.87,20.58,9.02,31.55-2.14,3.95-4.02,7.21-8.58,6.14-14.83-.17-1.01.16-1.94.97-2.7,1.44-1.35.73-2.94-.03-4.12-3.42-5.28-6.3-10.93-11.6-14.86-6.5-4.81-17.52-5.35-24.07-.7-8.24,5.86-12.17,13.97-12.57,24.02Z"/><path class="cls-4" d="M623.41,160.87c.22.25.44.49.65.74,1.1,5.11.04,6.88-6.2,9.01-14.72,5.04-28.69,4.38-41.23-5.94-.24-.26-.48-.52-.72-.78-3.46-8.11-6.2-16.42-4.87-25.38.82-5.51.63-11.7,6.86-14.79-5.79,9.16-4.24,19.37-3.76,29.28.21,4.39,2.58,8.49,6.13,11.53,1.04.89,3.46,1.34,3.16.45-1.24-3.67,3.12-6.58.73-10.49-1.02-1.67-3.79-3.09-2.62-5.99,1.14-2.82.83-5.76.49-8.75-.26-2.28-.83-5.44.36-6.81,4.54-5.24-1.73-7.54-2.47-11.25-.03-1.73,1.09-2.81,2.4-3.48,10.5-5.4,21.22-6.57,32.21-1.4,1.89.89,3.2,2.94,5.6,2.83,0,0-.03-.03-.03-.03,2.77,5.93,6.07,11.62,6.74,18.39.57,5.81-.04,6.8-5.85,6.8-10.5,0-20.99-.02-31.49-.05-2.98,0-5.85.73-5.12,4.3.67,3.26,1.37,6.95,4.9,8.82.87.82,1.74,1.64,2.62,2.46.75,2,2.69,2.59,4.33,2.93,6.84,1.42,13.69.93,19.69-2.67,3.02-1.81,5.05-1.4,7.48.28ZM596.93,137.13c.08.83.38,1.48,1.33,1.57,1.15.11,1.68-.49,1.78-1.57,2.62-.09,5.27-.47,7.86-.2,4.08.42,5.88-.97,5.09-5.15,1.38-1.12.76-1.69-.57-2.06-1.61-2.64-3.68-4.81-6.38-6.37-.69-1.85-1.71-2.01-3.05-.61-7.37-.48-12.95,2.32-16.43,8.98-2.54,1.44-3.59,3.84-1.69,5.94,1.56,1.72,4.29,2.21,6.17-.44,1.96-.48,3.92-.5,5.89-.08ZM603.67,170.75c4.2-2.23,9.18.3,13.43-2.66,1.69-1.17,4.68-1.1,3.54-4-.95-2.41-3.32-1.2-5.16-.6-.63.21-1.3.31-1.89.6-6.29,3.15-12.86,1.6-19.34,1.12-1.2-.09-2.69-2.43-3.16.53-.27,1.71-.57,3.86,2.27,3.99,3.45.16,6.95-.38,10.31,1.01Z"/><path class="cls-5" d="M166.13,193.72c.27.21.53.42.8.63.29,1.17,1.11,1.48,2.19,1.38.27.21.54.42.81.63.28,1.16,1.1,1.49,2.18,1.38.27.21.55.41.82.62,3.82,4.15,7.92,6.67,13.94,4.13,4.39-1.85,8.53,0,12.03,2.79,7.46,5.97,7.31,13.51,4.12,21.58-.48,1.51-1.65,2.33-3.01,2.94-6.82,2.7-13.5,2.82-19.98-1.02-1.04-.29-1.61-1.07-2.03-1.99-1.95-4.05-3.58-8.15-2.98-12.82.21-1.65-.88-2.92-2.12-3.74-7.17-4.72-14.17-9.72-21.96-13.43-.25-.19-.29-.42-.13-.68.49-.87,1.02-1.71,1.47-2.6,2.66-5.29,3.71-5.52,8.67-2.44,1.64,1.02,2.96,2.8,5.21,2.65Z"/><path class="cls-2" d="M310.66,143.75c0-7.83-.11-15.66.06-23.48.06-2.52-1.54-6.12,2.78-6.91,4.12-.75,8.89-1.76,11.36,2.52,2.02,3.49,3.08,2.96,5.86,1.09,7.56-5.11,15.77-6.81,24.63-3.34,8.34,3.27,12.1,9.89,12.38,18.27.43,12.81.16,25.64.18,38.46,0,.49.07,1.13-.2,1.46-3.82,4.64-8.96,1.52-13.46,2.09-2.85.36-3.29-2.05-3.28-4.47.05-10.66.09-21.32.02-31.98-.05-6.67-2.28-10.27-7.06-11.91-4.83-1.65-11.88.75-15.28,5-1.51,1.89-1.53,3.95-1.52,6.13.04,10.83-.04,21.66.17,32.48.07,3.65-1.03,5.04-4.83,4.94-14.15-.37-11.65,1.92-11.84-11.86-.09-6.16-.01-12.33-.01-18.49h.04ZM324.97,163.8c2.31-10.31-.34-20.63.08-30.94,2.85-4.14,6.33-8.57,10.93-9.62,9.98-2.28,16.96,4.38,16.98,14.86.02,8.49-.08,16.99.03,25.48.12,9.22-1.71,8.14,8.67,8.26.17,0,.33-.02.5,0,2.68.28,3.91-.67,3.89-3.62-.12-12.49.44-25.01-.27-37.46-.39-6.82-3.83-12.62-10.88-15.62-9.7-4.14-17.73.18-25.44,4.94-2.86,1.76-4.35,1.52-6.33-.49-.04-.58-.08-1.15-.13-1.73-.5-4.23-3.74-3.31-6.08-2.76-2.39.56-5.15.75-5.05,5.05.38,15.3.13,30.61.15,45.91,0,2.08-.65,4.78,2.3,5.31,3.55.64,7.55,1.65,10.57-.81,1.92-1.56,1.57-4.47.08-6.77Z"/><path class="cls-5" d="M152.29,85.89c-1.83,5.42-3.5,10.46-5.24,15.48-3.27,9.41-6.55,18.82-9.88,28.21-2.15,6.06-5.85.33-8.81.84-2.4.42-1.68-2.55-1.18-4.26,4.1-14.03,9.18-27.72,14.07-41.48.7-1.97,1.8-3.56,3.96-2.33,2.31,1.32,6.41-.46,7.07,3.54Z"/><path class="cls-2" d="M720.99,171.76c-1.7-3.27-3.15-4-6.66-1.22-7.01,5.57-15.45,5.76-23.8,3.56-6.59-1.73-11.11-7.61-11.66-14.13-.61-7.17,2.73-12.02,8.81-15.42,7.8-4.37,16.31-5.67,25.01-5.83,4.36-.08,5.6-1.62,4.61-5.79-1.29-5.43-4.13-7.93-9.65-8.19-5.18-.25-9.78,1.63-14.36,3.62-3.11,1.35-5.89,1.86-8.46-1.3-3.82-4.69-3.61-6.76,1.76-9.55,8.76-4.54,17.92-6.96,27.9-5.17,10.86,1.95,17.35,8.09,18.54,19.16,1.4,13.08.65,26.25.45,39.39-.02,1.03-.23,2-1.12,2.65-1.76,1.28-9.36.09-11.36-1.77,1,.01,2.01.03,3.01.04,1.98,0,3.95,0,5.93.01,1.36,0,2.04-.66,2.02-2.03,0-1.68,0-3.35,0-5.03,0-9.32,0-18.65,0-27.97-.3-3.41-.53-6.83-1.97-10.02-.16-1.59-.78-2.96-1.96-4.06-.65-2.66-2.25-4.38-4.98-4.96-.66-1.3-1.85-1.72-3.16-2.16-11.95-4.08-23.14-1.59-34.03,3.77-2.13,1.05-2.24,2.58-1.35,4.54,1.82,4.01,4.55,4.67,8.5,2.91,7.04-3.13,14.25-5.52,21.93-1.93.31.31.62.62.93.93.37.65.75,1.3,1.12,1.95.32.76.69,1.51.95,2.29,2.5,7.43,1.77,8.51-5.76,9.98-2.46.48-4.9.6-7.36.82-5.63.5-11.04,1.81-15.89,4.9-.37.33-.73.66-1.1.98-3.03.92-4.97,2.95-5.97,5.92-.28.37-.56.74-.84,1.1-1.27,3.46-1.69,6.85.91,9.96,1.4,7.52,7.66,8.67,13.48,9.62,6.05.99,12.18.66,16.85-4.4.54-.04,1.09-.09,1.63-.13,1.36-1,2.71-2.01,4.07-3.01,2.63.09,3.04,1.91,3.09,4-.03.66-.06,1.32-.08,1.99Z"/><path class="cls-5" d="M34.99,190.8c.31-.35.62-.7.94-1.04,1.48.14,2.35-1,3.49-1.61,5.63-3.03,11.19-3.45,16.56.64-1.39,3.23,1.1,3.41,3.12,3.96,1.06,1.16,2.07,2.41,3.92,2.11,0,.62-.02,1.24-.03,1.86-.03.36-.06.73-.09,1.09-2.02-.17-3.19.71-2.87,2.78.52,3.36-.88,6.23-1.98,9.21,0,0-.03.03-.03.03-1.86-.23-3.08,1.2-4.39,2.01-5.4,3.34-10.17,1.77-15.19-.97-1.96-1.07-1.92-4.01-4.54-4.07-2.07-5.5-.92-10.78,1.1-16Z"/><path class="cls-2" d="M419.03,165.79c3.04-1.23,4.57-.27,4.95,3.05.64,5.51,5.07,3.49,8.19,3.8,3.69.37,3.78-2.25,3.78-4.95-.01-26.49-.05-52.99.1-79.48.02-3.64-1.27-4.78-4.64-4.42-1.82.19-3.66.12-5.49.17-3.75-.46-3.84,2-3.84,4.69.02,10.37-.03,20.75-.05,31.12-.68,0-1.37,0-2.05,0-1.27-1.08-1.62-3.35-3.96-3.05-.69-1.08-1.84-.97-2.89-1.11-5.25-3.12-10.73-2.29-16.24-.93-.65.3-1.31.6-1.96.9-1.87.21-3.97-.13-4.96,2.13,0,0-.03.01-.03.01-1.44,0-2.4.69-2.97,1.98,0,0-.02.03-.02.03-.37.32-.75.64-1.12.96-.63.01-1.26.03-1.9.04,7.21-9.27,22.08-12.09,32.43-5.67,4.24,2.63,4.63,1.09,4.59-2.72-.09-8.16.09-16.33-.09-24.49-.09-3.91,1.45-5.33,5.31-5.27,13.68.2,11.19-1.1,11.2,11.01.03,24.83-.08,49.65-.13,74.48,0,2.71.28,5.95-3.64,5.72-3.78-.22-8.83,2.26-10.71-3.46-.74-2.25-1.2-3.81-3.91-2.58.02-.66.03-1.32.05-1.98Z"/><path class="cls-5" d="M655.39,133.01c-.3.57-.6,1.14-.9,1.7-.79.37-1.58.74-2.37,1.11-2.17,2.62-5.71,1.54-8.24,3.05-2.23,1.33-3.64.49-5-1.19-.29-6.23-.6-12.46-.86-18.69-.07-1.68.03-3.29,2.03-4.04,4.71-1.75,9.27.38,11.16,5.07,1.04,2.59,2.51,4.95,4.8.76.67,2.35,1.34,4.7,2,7.04,0,0-.03,0-.03,0-1.89,1.22-5.59,1.53-2.62,5.2Z"/><path class="cls-2" d="M652.13,135.83c.79-.37,1.58-.74,2.37-1.11-2.29,9.7-.61,19.54-1.05,29.31-.5,11.11,1.46,9.89-9.84,9.88-7.02,0-7.09-.04-7.08-7.09.03-15.65.12-31.3.21-46.95.02-2.98-.44-6.13,3.96-6.74,6.3-.87,9.85.28,11.53,4.39.72,1.76.6,4.52,3.58,1.98.07.43.15.86.22,1.29-2.29,4.2-3.76,1.83-4.8-.76-1.89-4.69-6.45-6.83-11.16-5.07-2.01.75-2.1,2.36-2.03,4.04.26,6.23.57,12.46.86,18.69-1.33,1.39-.86,3.14-.87,4.76-.05,7.33-.03,14.65-.02,21.98.01,7.96.32,8.25,8.42,8.2.5,0,1-.08,1.49-.12,2.24.41,3.92,0,4.04-2.73.06-11.31.12-22.63.18-33.94Z"/><path class="cls-4" d="M62.98,196.72c0-.62.02-1.24.03-1.86-.02-1.72-.04-3.43-.06-5.15.24-.81.86-1.08,1.62-1.13,4.69-.5,8.59-3.23,12.98-4.59,7.46-2.31,13.49-5.61,10.6-15.16,3.3,2.45,2.59,6.29,1.94,9.12-.83,3.62-2.08,6.51,1.86,8.98.82.51-.81,1.08-1,1.79-5.19,1.7-10.41,3.3-15.56,5.12-4.05,1.43-7.88,3.62-12.42,2.89Z"/><path class="cls-2" d="M577.91,123.74c-6.23,3.09-6.04,9.28-6.86,14.79-1.33,8.96,1.41,17.27,4.87,25.38-7.31-8.36-8.01-18.3-6.28-28.54,3.97-23.45,33.9-29.33,48.62-17.95.75.58,1.26,1.48,1.88,2.23-2.39.11-3.7-1.94-5.6-2.83-10.99-5.17-21.7-4-32.21,1.4-1.31.67-2.43,1.75-2.4,3.48v.05c-1.33,0-1.99.64-1.98,1.97h-.05Z"/><path class="cls-4" d="M656.04,120.78c-.07-.43-.15-.86-.22-1.29.32-.37.65-.75.97-1.12,1.32,1.87,1.87,1.05,2.17-.63,3.05-2.53,6.59-3.84,10.52-3.93,2.42-.06,5.56-.64,5.42,3.23-.13,3.55.13,8.28-4.74,8.53-4.23.22-8.08,1.49-12.11,2.26-.67-2.35-1.34-4.7-2-7.04Z"/><path class="cls-2" d="M589.29,157.87c-3.53-1.87-4.22-5.56-4.9-8.82-.74-3.57,2.14-4.31,5.12-4.3,10.5.03,20.99.05,31.49.05,5.81,0,6.42-.99,5.85-6.8-.67-6.77-3.97-12.45-6.74-18.39,7.52,6.35,8.51,14.95,8.04,23.94-.16,3.11-2.74,3.31-5.21,3.27-9.97-.14-19.93-.31-29.9-.39-7.63-.06-8.56,1.48-5.12,8.31.51,1.02,1.49,1.83,1.36,3.12Z"/><path class="cls-2" d="M658.04,127.82c4.03-.76,7.88-2.04,12.11-2.26,4.88-.25,4.61-4.98,4.74-8.53.14-3.87-3-3.29-5.42-3.23-3.93.09-7.47,1.4-10.52,3.94-.6.02-1.21.04-1.81.06,3.98-4.8,9.34-5.89,15.18-5.54,3.18.19,4.92,1.9,4.59,5.19-.25,2.46-.6,4.93-1.18,7.33-.58,2.41-2.26,3.67-4.82,3.17-5.84-1.13-10.7.75-14.97,4.62.69-1.58,1.38-3.16,2.07-4.75h.03Z"/><path class="cls-2" d="M576.64,164.68c12.54,10.33,26.51,10.99,41.23,5.94,6.24-2.14,7.3-3.91,6.2-9.01,2.6,1.81,3.7,3.77.91,6.4-10.94,10.34-38.04,9.25-47.88-1.97-.29-.33-.31-.9-.46-1.36Z"/><path class="cls-2" d="M88.15,168.83c2.89,9.55-3.14,12.84-10.6,15.16-4.39,1.36-8.29,4.09-12.98,4.59,4.9-3.84,10.99-5.23,16.53-7.7,4.16-1.85,6.41-3.65,5.71-8.73-.98-7.16,1.59-13.75,5.18-19.88.98-1.67,1.76-3.64,4.03-4.09-4.37,6.22-7.19,13.03-7.87,20.65Z"/><path class="cls-2" d="M379.95,156.87c.06,2.18.62,4.2,2.01,5.93.33.36.66.71,1,1.07.34.63.68,1.27,1.02,1.9.02.61.03,1.21.05,1.82-8.27-8.15-9.03-18.43-7.87-29.05.53-4.85.98-9.96,4.84-13.73.54,3.55-3,6.24-2.09,9.88-2.01,5.94-.59,12.04-.87,18.06.1,1.59.66,2.97,1.85,4.07l.05.06Z"/><path class="cls-2" d="M62.98,196.72c4.54.73,8.37-1.46,12.42-2.89,5.15-1.82,10.37-3.42,15.56-5.12,2.29.32,3.74,1.53,4.08,3.89-1.99-1.69-4.02-2.51-6.75-1.51-7.15,2.6-14.35,5.05-21.59,7.38-2.05.66-2.23,1.97-2.48,3.71-.77,5.35-3.3,9.58-8.29,12.07.08-1.76,2.38-2.49,2.08-4.43,0,0,.03-.03.03-.03,5.47-2.43,4.18-7.61,4.86-11.99.03-.36.06-.73.09-1.09Z"/><path class="cls-2" d="M203.01,226.84c3.2-8.07,3.35-15.61-4.12-21.58-3.5-2.8-7.64-4.65-12.03-2.79-6.02,2.54-10.12.02-13.94-4.13,1.81,0,3,1.31,4.36,2.19,2.48,1.6,4.73,2.16,7.83.92,6.53-2.61,14.54.64,18.55,6.89,4.54,7.06,4.32,13.28-.65,18.51Z"/><path class="cls-2" d="M34.99,190.8c-2.03,5.22-3.17,10.5-1.1,16,1.34,5.16,5.35,8.58,10.31,9,3.65.31,7.17-.44,10.72-1.05-4.71,4.98-15.49,3.21-20.37-2.87-5.33-6.64-5.24-15.78.44-21.08Z"/><path class="cls-2" d="M150.92,196.79c7.79,3.71,14.8,8.7,21.96,13.43,1.25.82,2.34,2.09,2.12,3.74-.6,4.67,1.03,8.77,2.98,12.82-3.72-2.35-4.46-6.23-4.24-10.01.21-3.6-1.27-5.64-4.01-7.32-4.96-3.05-9.96-6.03-14.82-9.23-1.44-.94-3.48-1.36-3.99-3.44Z"/><path class="cls-2" d="M386.97,168.79c.66,1.1,1.76,1.03,2.82,1.07,1.51,3.09,4.52,2.62,7.16,3.02.5.74,1.25.85,2.06.83,4.42.06,8.68-.92,12.91-2.06,2.01-.95,4.01-1.91,6.02-2.86-8.48,8.71-23.91,8.7-32.76-.03.6.02,1.19.03,1.79.05Z"/><path class="cls-2" d="M166.13,193.72c-2.25.14-3.57-1.63-5.21-2.65-4.96-3.08-6-2.85-8.67,2.44-.45.89-.98,1.74-1.47,2.6-.91-1.92-2.43-1.23-3.87-.92,2.68-4.95,7.06-8.99,7.86-14.92.13-.21.31-.37.53-.49-2.05,5.73.97,8.27,5.92,10.06,1.86.67,3.76,1.97,4.9,3.9Z"/><path class="cls-2" d="M623.41,160.87c-2.44-1.68-4.46-2.09-7.48-.28-6,3.6-12.86,4.09-19.69,2.67-1.64-.34-3.59-.93-4.33-2.93,8.71,3.74,17.07,2.55,25.13-1.9,3.22-1.78,5.28-1.06,6.38,2.43Z"/><path class="cls-4" d="M54.91,214.75c-3.55.61-7.06,1.36-10.72,1.05-4.96-.42-8.97-3.83-10.31-9,2.62.06,2.58,3,4.54,4.07,5.02,2.74,9.79,4.31,15.19.97,1.31-.81,2.53-2.24,4.39-2.01.3,1.94-2,2.67-2.08,4.43-.34.16-.67.32-1.01.49Z"/><path class="cls-2" d="M55.98,188.78c-5.37-4.1-10.93-3.67-16.56-.64-1.13.61-2.01,1.75-3.49,1.61,6.2-6.72,14.96-7.09,22.02-.94l-.32.33c-.55-.12-1.1-.24-1.65-.37Z"/><path class="cls-2" d="M180.01,228.77c6.48,3.83,13.17,3.72,19.98,1.02-6.62,5.19-14.63,4.79-19.98-1.02Z"/><path class="cls-2" d="M123.03,204.67c6.01-1.48,12.17-2.42,17.9-4.9-5.37,3.84-11.28,5.67-17.9,4.9Z"/><path class="cls-2" d="M104.09,199.75c5.28,1.64,10.56,3.27,15.84,4.91-5.92.43-11.22-1.16-15.84-4.91Z"/><path class="cls-2" d="M62.95,189.71c.02,1.72.04,3.43.06,5.15-1.84.3-2.86-.95-3.92-2.11-.49-1.2-.98-2.4-1.47-3.6l.32-.33c1.57.84,2.99,2.54,5.01.89Z"/><path class="cls-5" d="M179.96,32.76c.64,0,1.27.02,1.91.02,2.05,1.05,2.33,3.21,3.16,5.03-4.26.89-4.33-2.41-5.07-5.05Z"/><path class="cls-4" d="M658.01,127.82c-.69,1.58-1.38,3.16-2.07,4.75-.03.34-.21.49-.55.45-2.97-3.67.73-3.98,2.62-5.2Z"/><path class="cls-4" d="M386.97,168.79c-.6-.02-1.19-.03-1.79-.05-.39-.38-.77-.77-1.16-1.15-.02-.61-.03-1.21-.05-1.82,1.32.69,4.15-.12,3,3.02Z"/><path class="cls-2" d="M97.15,194.73c1.48.05,2.44.79,2.9,2.19-1.6.11-2.42-.82-2.9-2.19Z"/><path class="cls-2" d="M383,121.9c.03,1.06-.42,1.76-1.52,1.94-.03-1.07.65-1.58,1.52-1.94Z"/><path class="cls-5" d="M657.15,117.8c.6-.02,1.21-.04,1.81-.06-.3,1.67-.85,2.49-2.17.63-.08-.31.04-.5.36-.57Z"/><path class="cls-2" d="M141.93,199.09c.27-1.05,1.01-1.37,2.01-1.32-.27,1.04-.96,1.46-2.01,1.32Z"/><path class="cls-2" d="M101.1,197.75c.95-.04,1.67.27,1.94,1.27-1.03.16-1.72-.19-1.94-1.27Z"/><path class="cls-4" d="M419.03,165.79c-.02.66-.03,1.32-.05,1.98,0,0-.09.28-.09.28,0,0-.29.05-.29.05-.4-.4-1.09-.77-1.13-1.2-.11-1.02.86-.97,1.56-1.11Z"/><path class="cls-2" d="M169.12,195.72c-1.09.1-1.91-.21-2.19-1.38,1.02,0,1.84.32,2.19,1.38Z"/><path class="cls-2" d="M172.11,197.72c-1.09.11-1.9-.21-2.18-1.38,1.04-.04,1.82.34,2.18,1.38Z"/><path class="cls-5" d="M156.34,176.74c-.23-.12-.45-.24-.68-.36.28-.17.56-.34.85-.52.17.33.12.62-.16.87Z"/><path class="cls-5" d="M129.8,52.72c-2.4-7.93.16-14.85,6.88-18.87,1.25-.75,2.56-1.67,3.37-2.84,5.51-7.89,13.6-10.56,23.39-7.64,1.4.42,3.03.09,4.39.57,2.03.71,4.89.49,5.2,3.68-7.88,1.59-16.05,1.59-23.66,4.77-6.23,2.6-10.25,7.2-13.18,12.96-1.54,3.03-3.28,5.77-6.4,7.37Z"/><path class="cls-5" d="M128.99,61.87c.31-.67.62-1.34.92-2.02,1.17.9,2.43,2.21,1.23,3.43-1.1,1.13-1.85-.25-2.16-1.41Z"/><path class="cls-5" d="M185.89,44.31c-.15.24-.3.47-.44.7-.12-.25-.34-.5-.33-.75,0-.24.25-.47.39-.71.13.25.25.5.38.75Z"/><path class="cls-5" d="M48.23,113.89c-7.19-.58-13.85-.44-16.52-8.54-.78-2.36-4.44-2.12-5.74-5.54-3.95-10.38-1.37-20.03,6.77-27.47,5.4-4.93,11.3-3.01,17.02-3.84,12.24-1.78,16.64,8.14,20.07,16.09,1.99,4.61,1.4,11.96-1.49,17.95-3.09,6.42-8.04,8.96-14.65,9.66-2.08.22-3.81,2.16-5.47,1.68Z"/><path class="cls-4" d="M422.02,119.78c.02-10.37.07-20.75.05-31.12,0-2.69.09-5.15,3.84-4.69-1.61,9.02-1.03,18.06-.4,27.12.22,3.21,3.18,8.05-3.49,8.69Z"/><path class="cls-4" d="M396.89,114.7c5.51-1.36,10.99-2.19,16.24.93.57,1.4,1.8,1.05,2.89,1.11,2.34-.3,2.69,1.96,3.96,3.05-.71,2-.59,4.02-.06,6.04-6.12-2.2-12.26-4.31-18.86-2,1.56-2.83,4.13-3.83,7.18-4.07,1.93-.15,4,.61,5.99-.95-2.99-2.71-6.42-3.15-10.18-3.1-2.37.03-5.02,1.02-7.15-1.01ZM417.03,118.07c-.12.24-.26.45-.31.68-.02.07.25.3.32.28.22-.08.4-.25.6-.38-.2-.19-.4-.38-.61-.58Z"/><path class="cls-2" d="M401.05,123.82c6.6-2.31,12.74-.2,18.86,2,0,0,.05,0,.05,0,.98,2.36,1.95,4.71,2.93,7.07.02.62.04,1.23.06,1.85.04,6.68.2,13.37-.99,19.99,0,0-.02.04-.02.04-1.34.54-1.87,1.64-2.09,2.96-.88.41-1.76.83-2.64,1.24,0,0-.34-.31-.34-.31,1.5-2.35,3.4-4.49,3.8-7.43.72-5.29.57-10.6.31-15.9-.31-6.14-4.2-10.03-10.37-10.63-3.52-.34-6.95.02-10.21,1.49-.18-.19-.35-.37-.52-.56.38-.6.75-1.2,1.13-1.8h.06Z"/><path class="cls-2" d="M398.03,161.64c-.68-2.15-4.74-1.5-4-4.83-.32-.71-.65-1.41-.97-2.11-.3-.66-.6-1.32-.9-1.98.07-1.67-.77-3.46.7-4.93.8,2.49,1.4,5.06,2.44,7.45,2.67,6.17,8.22,7.97,17.73,5.97-.71,2.17-2.61,2.25-4.41,2.53-3.78.57-7.2-.65-10.58-2.09Z"/><path class="cls-4" d="M392.85,147.79c-1.47,1.47-.63,3.26-.7,4.93-.47-.13-1.17-.12-1.36-.42-2.24-3.61-.47-19.98,2.49-22.98.39-.39,1.22-.36,1.84-.52-.56,3.69-4.45,6.69-2.29,10.96,0,2.68.01,5.36.02,8.04Z"/><path class="cls-4" d="M398.03,161.64c3.38,1.44,6.8,2.66,10.58,2.09,1.81-.27,3.7-.36,4.41-2.53.53-.23,1.05-.45,1.58-.68.46.08.93.16,1.39.23-1.22,3.62-3.96,5.09-7.55,4.98-3.92-.12-8.54,1.31-10.41-4.1Z"/><path class="cls-4" d="M421.96,154.73c1.19-6.62,1.03-13.31.99-19.99,3.8,1.35,1.95,4.58,1.92,6.84-.07,4.51.71,9.37-2.91,13.15Z"/><path class="cls-4" d="M378.04,152.75c.28-6.02-1.14-12.12.87-18.06,2.16,5.63.9,11.42.69,17.16-.01.32-1.01.61-1.55.91Z"/><path class="cls-2" d="M392.83,139.76c-2.16-4.26,1.73-7.26,2.29-10.96.97-.97,1.93-1.93,2.9-2.9.61-.09,1.23-.18,1.84-.28.17.19.34.38.52.56-4.7,3.31-5.62,8.72-7.55,13.56Z"/><path class="cls-4" d="M411.92,171.64c-4.23,1.14-8.49,2.12-12.91,2.06,3.4-3.55,10.29-4.65,12.91-2.06Z"/><path class="cls-4" d="M396.96,172.87c-2.64-.4-5.65.08-7.16-3.02,2.62.45,6.38-1.8,7.16,3.02Z"/><path class="cls-4" d="M422.88,132.9c-.98-2.36-1.95-4.71-2.93-7.07,2.77,1.61,5.44,3.27,2.93,7.07Z"/><path class="cls-4" d="M389.97,117.74c.99-2.26,3.09-1.93,4.96-2.13-.83,2.61-3,2.14-4.96,2.13Z"/><path class="cls-4" d="M399.87,125.63c-.61.09-1.23.18-1.84.28-.01-2.13,1.42-2.18,2.97-2.08-.38.6-.75,1.2-1.13,1.8Z"/><path class="cls-4" d="M386.97,119.74c.57-1.29,1.53-1.99,2.97-1.98-.03,2.1-1.5,2.05-2.97,1.98Z"/><path class="cls-4" d="M419.84,157.73c.23-1.32.76-2.43,2.09-2.96.1,1.55.04,2.99-2.09,2.96Z"/><path class="cls-2" d="M415.99,160.76c-.46-.08-.93-.16-1.39-.23.36-1.1,1.2-1.63,2.27-1.87,0,0,.33.31.34.31-.4.6-.81,1.2-1.21,1.8Z"/><path class="cls-4" d="M393.05,154.7c.32.7.65,1.41.97,2.11-1.33-.24-2.58-.52-.97-2.11Z"/><path class="cls-4" d="M382.96,163.87c-.33-.36-.66-.71-1-1.07,1.61-.83.74.64,1,1.07Z"/><path class="cls-4" d="M385.83,120.73c.37-.32.75-.64,1.12-.96-.37.32-.75.64-1.12.96Z"/><path class="cls-4" d="M379.89,156.81c.16-.14.31-.27.47-.41-.14.15-.27.31-.41.47,0,0-.06-.05-.06-.05Z"/><path class="cls-4" d="M281.96,169.8c-2.12-.29-1.96-1.9-1.96-3.4,0-23.96,0-47.93.03-71.89,0-.76-.16-1.68,1.98-2.4v77.65l-.05.05Z"/><path class="cls-4" d="M282,169.76c3.08.26,6.23-.48,9.24,1.01-3.15.57-6.41,2.94-9.28-.96,0,0,.05-.05.05-.05Z"/><path class="cls-4" d="M192.79,126.14c.4-10.05,4.34-18.16,12.57-24.02,6.55-4.66,17.57-4.11,24.07.7,5.3,3.92,8.18,9.57,11.6,14.86.76,1.18,1.48,2.77.03,4.12-.81.76-1.14,1.69-.97,2.7,1.07,6.24-2.19,10.8-6.14,14.83-10.97,11.17-19.35,9.01-31.55,2.14-3.67-2.06-6.09-5.35-9.17-7.96-2.18-1.84.81-4.91-.45-7.36Z"/><path class="cls-5" d="M579.94,121.71c.74,3.71,7.02,6,2.47,11.25-1.19,1.37-.62,4.53-.36,6.81.34,2.98.65,5.92-.49,8.75-1.17,2.91,1.6,4.32,2.62,5.99,2.39,3.91-1.97,6.82-.73,10.49.3.89-2.12.44-3.16-.45-3.55-3.04-5.92-7.14-6.13-11.53-.47-9.91-2.03-20.12,3.76-29.28,0,0,.05,0,.05,0,1.34.03,2-.63,1.97-1.97v-.05Z"/><path class="cls-5" d="M603.67,170.75c-3.36-1.39-6.86-.86-10.31-1.01-2.84-.13-2.54-2.28-2.27-3.99.47-2.96,1.96-.62,3.16-.53,6.48.48,13.05,2.03,19.34-1.12.58-.29,1.26-.4,1.89-.6,1.85-.61,4.21-1.82,5.16.6,1.14,2.9-1.86,2.83-3.54,4-4.25,2.95-9.22.43-13.43,2.66Z"/><path class="cls-2" d="M586.56,131.72c-1.51,4.28.7,5.52,4.48,5.49-1.88,2.65-4.6,2.17-6.17.44-1.9-2.1-.85-4.5,1.69-5.94Z"/><path class="cls-2" d="M596.93,137.13c1.03-.54,2.07-.54,3.1,0-.09,1.09-.63,1.68-1.78,1.57-.95-.09-1.24-.74-1.33-1.57Z"/><path class="cls-2" d="M606.04,123.35c-1.12.34-2.15.18-3.05-.61,1.34-1.41,2.36-1.24,3.05.61Z"/><path class="cls-2" d="M612.98,131.78c-.69-.55-.91-1.23-.57-2.06,1.33.37,1.95.94.57,2.06Z"/><path class="cls-4" d="M323.13,119.59c1.98,2.01,3.48,2.25,6.33.49,7.71-4.76,15.74-9.08,25.44-4.94,7.05,3,10.49,8.8,10.88,15.62.71,12.45.15,24.97.27,37.46.03,2.95-1.21,3.89-3.89,3.62-.16-.02-.33,0-.5,0-10.38-.11-8.55.97-8.67-8.26-.11-8.49,0-16.99-.03-25.48-.03-10.48-7-17.14-16.98-14.86-4.6,1.05-8.08,5.47-10.93,9.61-1.7-1.12-.68-3.46-2.22-4.74-3.49-2.91-2.87-5.79.3-8.52Z"/><path class="cls-5" d="M323.13,119.59c-3.18,2.73-3.79,5.61-.3,8.52,1.54,1.28.52,3.62,2.22,4.74-.42,10.31,2.23,20.63-.08,30.94-.29.4-.85.83-.81,1.19.61,5.73-3.41,4.7-6.8,4.81-4.63.15-3.31-3.27-3.32-5.62-.09-12.49-.15-24.99,0-37.48.11-9.67-2.13-9.03,8.99-8.84.04.58.08,1.15.13,1.73Z"/><path class="cls-4" d="M323.01,117.86c-11.12-.19-8.88-.83-8.99,8.84-.14,12.49-.08,24.99,0,37.48.02,2.35-1.3,5.76,3.32,5.62,3.39-.11,7.41.92,6.8-4.81-.04-.36.53-.79.81-1.19,1.5,2.29,1.85,5.2-.08,6.77-3.02,2.46-7.02,1.45-10.57.81-2.95-.53-2.3-3.23-2.3-5.31-.02-15.3.23-30.62-.15-45.91-.11-4.29,2.66-4.49,5.05-5.05,2.35-.55,5.59-1.46,6.08,2.76Z"/><path class="cls-5" d="M681.88,152.65c1.01-2.97,2.94-5,5.98-5.92q1.57,0,1.1-.99c4.85-3.09,10.26-4.4,15.89-4.9,2.46-.22,4.9-.34,7.36-.82,7.53-1.46,8.26-2.55,5.76-9.98-.26-.78-.63-1.53-.95-2.29,1.48-1.72.1-1.79-1.12-1.95-.31-.31-.62-.62-.93-.93-1.39-4.1-5-4.58-8.51-5.07-1.77-.25-4.23.17-4.11-2.33.13-2.79,2.79-1.34,4.35-1.69,5.68-1.27,10.85,1.87,16.37,1.97,2.73.58,4.33,2.29,4.98,4.96-.48,1.9-.66,3.65,1.96,4.06,1.44,3.19,1.66,6.61,1.97,10.02-1.76.18-1.99,1.4-1.98,2.84.01,7.43.01,14.86,0,22.29,0,1.44.21,2.66,1.98,2.84,0,1.68,0,3.35,0,5.03-1.35,0-1.95.75-2.02,2.03-1.98,0-3.95,0-5.93-.01-.84-.87.61-5.05-2.93-2.03-.05-2.09-.46-3.9-3.09-4-.22-2.14,1.07-5.2-3.02-5.01,3.04-3.34,3.97-7.55,2.61-11.48-1.18-3.39-5.15-.27-7.59-1.57,1.12-3.93,5.06-.5,7.11-2.78-4.84-.4-9.48-.53-13.9.94-2.44.81-5.63,1.48-5.07,5.38-3.53,3.55-4.2,7.33-.89,11.41-1.24.92-1.84,2.03-.13,2.89,1.13.57,2.89,1.51,2.91-1.18.99.13,1.98.26,2.97.38,1.36,5.67,5.19,3.12,7.88,1.92,2.97-1.33,3.07-.07,3.05,2.12-.54.04-1.09.09-1.63.13-3.85,1.27-8.13.13-11.88,2.56-1.44.93-3.75-.05-5.72-.43-5.2-1.01-9.04-3.96-12.73-7.35-2.59-3.11-2.17-6.49-.91-9.95.43-.12.87-.24,1.3-.35-.15-.25-.31-.5-.46-.75Z"/><path class="cls-4" d="M723.06,117.76c-5.53-.1-10.69-3.25-16.37-1.97-1.56.35-4.22-1.1-4.35,1.69-.12,2.51,2.35,2.09,4.11,2.33,3.51.49,7.11.97,8.51,5.07-7.68-3.59-14.89-1.19-21.93,1.94-3.95,1.75-6.68,1.1-8.5-2.91-.89-1.95-.78-3.49,1.35-4.54,10.89-5.36,22.08-7.85,34.03-3.77,1.3.44,2.5.86,3.16,2.16Z"/><path class="cls-4" d="M681.94,163.71c3.7,3.39,7.53,6.34,12.73,7.35,1.97.38,4.28,1.37,5.72.43,3.75-2.43,8.03-1.29,11.88-2.56-4.67,5.06-10.8,5.38-16.85,4.4-5.82-.95-12.09-2.1-13.48-9.62Z"/><path class="cls-4" d="M714.96,160.77c4.09-.19,2.8,2.87,3.02,5.01-1.36,1-2.71,2.01-4.07,3.01.01-2.19-.09-3.44-3.05-2.12-2.69,1.2-6.52,3.75-7.88-1.92,4.32-.36,8.28-1.77,11.98-3.99Z"/><path class="cls-4" d="M731.95,164.76c-1.76-.18-1.98-1.41-1.98-2.84.01-7.43.02-14.86,0-22.29,0-1.44.23-2.66,1.98-2.84,0,9.32,0,18.65,0,27.97Z"/><path class="cls-4" d="M721.07,169.78c3.54-3.01,2.09,1.16,2.93,2.03-1-.01-2.01-.03-3.01-.04h0c.03-.67.06-1.33.08-1.99Z"/><path class="cls-4" d="M729.99,126.78c-2.62-.41-2.44-2.16-1.96-4.06,1.18,1.1,1.8,2.47,1.96,4.06Z"/><path class="cls-4" d="M729.93,171.82c.07-1.28.67-2.02,2.02-2.03.02,1.36-.66,2.04-2.02,2.03Z"/><path class="cls-4" d="M715.88,125.81c1.23.16,2.61.23,1.12,1.95-.37-.65-.75-1.3-1.12-1.95Z"/><path class="cls-4" d="M681.88,152.65c.15.25.31.5.46.75-.43.12-.87.24-1.3.35.28-.37.56-.74.84-1.1Z"/><path class="cls-4" d="M688.95,145.75q.47.99-1.1.99c.36-.33.73-.66,1.1-.99Z"/><path class="cls-4" d="M62.89,197.81c-.68,4.38.62,9.55-4.86,11.99,1.1-2.97,2.5-5.85,1.98-9.21-.32-2.07.85-2.95,2.87-2.78Z"/><path class="cls-4" d="M57.62,189.15c.49,1.2.98,2.4,1.47,3.6-2.02-.55-4.5-.73-3.12-3.96.55.12,1.1.24,1.65.37Z"/><path class="cls-5" d="M416.02,116.74c-1.08-.05-2.32.29-2.89-1.11,1.05.14,2.2.03,2.89,1.11Z"/><path class="cls-4" d="M647.91,172.5c-.5.04-1,.12-1.49.12-8.1.05-8.41-.24-8.42-8.2-.01-7.33-.03-14.65.02-21.98.01-1.62-.46-3.37.87-4.76,1.36,1.68,2.77,2.52,5,1.19,2.52-1.51,6.07-.43,8.24-3.05-.06,11.31-.12,22.63-.17,33.94-1.95.02-4.11-.27-4.04,2.73Z"/><path class="cls-5" d="M647.91,172.5c-.07-3,2.09-2.71,4.04-2.73-.11,2.73-1.8,3.14-4.04,2.73Z"/><path class="cls-4" d="M579.93,121.75c.02,1.34-.63,2-1.97,1.97-.01-1.33.65-1.98,1.97-1.97Z"/><path class="cls-5" d="M417.03,118.07c.21.2.41.39.61.58-.2.13-.38.3-.6.38-.07.03-.34-.21-.32-.28.05-.23.19-.44.31-.68Z"/><path class="cls-4" d="M709.98,147.72c-3.98,1.08-8.16,1.52-11.87,3.53-.56-3.89,2.64-4.57,5.07-5.38,4.42-1.47,9.06-1.34,13.9-.94-2.05,2.28-5.99-1.15-7.11,2.78Z"/><path class="cls-4" d="M697.22,162.66c.93.57,1.85,1.14,2.78,1.72-.02,2.69-1.78,1.75-2.91,1.18-1.72-.87-1.12-1.97.13-2.89Z"/></svg>